<svg xmlns="http://www.w3.org/2000/svg" width="500" height="500" style="width:100%;height:100%;transform:translate3d(0,0,0);content-visibility:visible" viewBox="0 0 500 500"><defs><clipPath id="a"><path d="M0 0h500v500H0z"/></clipPath><clipPath id="c"><path d="M0 0h500v500H0z"/></clipPath><clipPath id="b"><path d="M0 0h500v500H0z"/></clipPath></defs><g clip-path="url(#a)"><g clip-path="url(#b)" style="display:block"><g class="primary design" style="display:none"><path fill="none" class="primary"/><path class="primary"/></g><g class="primary design" style="display:none"><path fill="none" class="primary"/><path class="primary"/></g><g class="primary design" style="display:none"><path class="primary"/><path fill="none" class="primary"/></g><g class="primary design" style="display:none"><path class="primary"/><path fill="none" class="primary"/></g><g class="primary design" style="display:none"><path class="primary"/><path fill="none" class="primary"/></g><g class="primary design" style="display:block"><path fill="none" stroke="#121331" stroke-width="41.66" d="M-4957.5-4957.5" class="primary"/><path fill="#121331" d="M250 125.02h16.664c9.207 0 16.664-7.457 16.664-16.664V75.028c0-18.414-14.914-33.328-33.328-33.328s-33.328 14.914-33.328 33.328v16.664c0 18.414 14.914 33.328 33.328 33.328zm169.244 20.83H80.756c-10.06 0-18.226 8.165-18.226 18.226s8.165 18.226 18.226 18.226h91.131c11.499 0 20.83 9.332 20.83 20.83V439.97c0 10.206 8.124 18.33 18.123 18.33 10.206 0 18.33-8.124 18.33-18.33V312.49c0-11.457 9.373-20.83 20.83-20.83 11.456 0 20.83 9.373 20.83 20.83v127.48c0 10.206 8.124 18.33 18.122 18.33 10.207 0 18.33-8.124 18.33-18.33V203.132c0-11.498 9.332-20.83 20.83-20.83h91.132c10.06 0 18.226-8.165 18.226-18.226 0-10.06-8.165-18.226-18.226-18.226z" class="primary"/></g><g class="primary design" style="display:none"><path fill="none" class="primary"/><path class="primary"/><path class="primary"/></g></g><g clip-path="url(#c)" style="display:none"><g class="primary design" style="display:none"><path fill="none" class="primary"/><path class="primary"/></g><g class="primary design" style="display:none"><path fill="none" class="primary"/><path class="primary"/></g><g class="primary design" style="display:none"><path class="primary"/><path fill="none" class="primary"/></g><g class="primary design" style="display:none"><path class="primary"/><path fill="none" class="primary"/></g><g class="primary design" style="display:none"><path class="primary"/><path fill="none" class="primary"/></g><g class="primary design" style="display:none"><path fill="none" class="primary"/><path class="primary"/><path class="primary"/></g></g></g></svg>